<?xml version="1.0" standalone="no"?><!DOCTYPE svg PUBLIC "-//W3C//DTD SVG 1.1//EN" "http://www.w3.org/Graphics/SVG/1.1/DTD/svg11.dtd"><svg t="1745295844485" class="icon" viewBox="0 0 1026 1024" version="1.1" xmlns="http://www.w3.org/2000/svg" p-id="1121" xmlns:xlink="http://www.w3.org/1999/xlink" width="200.390625" height="200"><path d="M514.694737 218.273684l35.031579-21.557895c-2.694737-2.694737-86.231579-140.126316-242.526316-142.821052-64.673684 0-134.736842 24.252632-204.8 83.536842C99.705263 142.821053 2.694737 223.663158 0 350.315789c0 43.115789 13.473684 88.926316 43.115789 134.736843 113.178947 164.378947 439.242105 471.578947 441.936843 471.578947 8.084211 8.084211 18.863158 10.778947 29.642105 10.778947s21.557895-5.389474 26.947368-13.473684l436.547369-466.189474 2.694737-2.694736c2.694737-2.694737 45.810526-61.978947 45.810526-148.210527 0-61.978947-26.947368-137.431579-105.094737-202.105263-67.368421-56.589474-137.431579-80.842105-202.105263-80.842105-107.789474 0-194.021053 67.368421-242.526316 140.126316v43.115789c5.389474 8.084211 16.168421 16.168421 24.252632 18.863158 10.778947 2.694737 21.557895 0 29.642105-5.389474s16.168421-16.168421 18.863158-24.252631c2.694737-10.778947 0-21.557895-5.389474-29.642106l-29.642105 21.557895 35.031579-21.557895-35.031579 21.557895 35.031579 21.557895C584.757895 183.242105 649.431579 134.736842 724.884211 137.431579c43.115789 0 94.315789 16.168421 150.905263 61.978947C932.378947 250.610526 945.852632 296.421053 945.852632 339.536842c0 56.589474-26.947368 97.010526-26.947369 97.010526L485.052632 902.736842l29.642105 26.947369 26.947368-29.642106S212.884211 587.452632 113.178947 439.242105C88.926316 406.905263 80.842105 377.263158 80.842105 350.315789c-2.694737-80.842105 75.452632-150.905263 75.452632-150.905263C215.578947 148.210526 264.084211 134.736842 304.505263 134.736842c99.705263-2.694737 172.463158 107.789474 175.157895 105.094737 5.389474 8.084211 16.168421 16.168421 24.252631 18.863158 10.778947 2.694737 21.557895 0 29.642106-5.389474s16.168421-16.168421 18.863158-24.252631c2.694737-10.778947 0-21.557895-5.389474-29.642106l-32.336842 18.863158z" fill="#999999" p-id="1122"></path></svg>